REM DIRINDEX 1\2,1\3,1\4,1\5
REM DIRNAME folder01,folder02,folder03,folder04,folder05
TITLE ""
FILE "1Q_t_0542-0551.mp3" MP3
  TRACK 01 AUDIO
    TITLE "3:cjc004_2528"
    INDEX 01 00:00:00
  TRACK 02 AUDIO
    TITLE "0:"
    INDEX 01 00:01:15
  TRACK 03 AUDIO
    TITLE "4:cjc004_2529"
    INDEX 01 00:01:46
  TRACK 04 AUDIO
    TITLE "0:"
    INDEX 01 00:03:00
  TRACK 05 AUDIO
    TITLE "5:cjc004_2530"
    INDEX 01 00:03:25
  TRACK 06 AUDIO
    TITLE "0:"
    INDEX 01 00:09:02
  TRACK 07 AUDIO
    TITLE "3:cjc004_2531"
    INDEX 01 00:09:51
  TRACK 08 AUDIO
    TITLE "0:"
    INDEX 01 00:10:74
  TRACK 09 AUDIO
    TITLE "4:cjc004_2532"
    INDEX 01 00:11:33
  TRACK 10 AUDIO
    TITLE "0:"
    INDEX 01 00:12:71
  TRACK 11 AUDIO
    TITLE "5:cjc004_2533"
    INDEX 01 00:13:22
  TRACK 12 AUDIO
    TITLE "0:"
    INDEX 01 00:17:59
  TRACK 13 AUDIO
    TITLE "3:cjc004_2534"
    INDEX 01 00:18:37
  TRACK 14 AUDIO
    TITLE "0:"
    INDEX 01 00:19:54
  TRACK 15 AUDIO
    TITLE "4:cjc004_2535"
    INDEX 01 00:20:16
  TRACK 16 AUDIO
    TITLE "0:"
    INDEX 01 00:21:53
  TRACK 17 AUDIO
    TITLE "5:cjc004_2536"
    INDEX 01 00:22:01
  TRACK 18 AUDIO
    TITLE "0:"
    INDEX 01 00:27:71
  TRACK 19 AUDIO
    TITLE "3:cjc004_2537"
    INDEX 01 00:28:53
  TRACK 20 AUDIO
    TITLE "0:"
    INDEX 01 00:29:62
  TRACK 21 AUDIO
    TITLE "4:cjc004_2538"
    INDEX 01 00:30:12
  TRACK 22 AUDIO
    TITLE "0:"
    INDEX 01 00:31:51
  TRACK 23 AUDIO
    TITLE "5:cjc004_2539"
    INDEX 01 00:32:07
  TRACK 24 AUDIO
    TITLE "0:"
    INDEX 01 00:36:05
  TRACK 25 AUDIO
    TITLE "3:cjc004_2540"
    INDEX 01 00:36:60
  TRACK 26 AUDIO
    TITLE "0:"
    INDEX 01 00:38:00
  TRACK 27 AUDIO
    TITLE "4:cjc004_2541"
    INDEX 01 00:38:30
  TRACK 28 AUDIO
    TITLE "0:"
    INDEX 01 00:39:66
  TRACK 29 AUDIO
    TITLE "5:cjc004_2542"
    INDEX 01 00:40:23
  TRACK 30 AUDIO
    TITLE "0:"
    INDEX 01 00:44:56
  TRACK 31 AUDIO
    TITLE "3:cjc004_2543"
    INDEX 01 00:45:33
  TRACK 32 AUDIO
    TITLE "0:"
    INDEX 01 00:46:51
  TRACK 33 AUDIO
    TITLE "4:cjc004_2544"
    INDEX 01 00:47:05
  TRACK 34 AUDIO
    TITLE "0:"
    INDEX 01 00:48:24
  TRACK 35 AUDIO
    TITLE "5:cjc004_2545"
    INDEX 01 00:48:51
  TRACK 36 AUDIO
    TITLE "0:"
    INDEX 01 00:53:66
  TRACK 37 AUDIO
    TITLE "3:cjc004_2546"
    INDEX 01 00:54:46
  TRACK 38 AUDIO
    TITLE "0:"
    INDEX 01 00:55:53
  TRACK 39 AUDIO
    TITLE "4:cjc004_2547"
    INDEX 01 00:56:06
  TRACK 40 AUDIO
    TITLE "0:"
    INDEX 01 00:57:17
  TRACK 41 AUDIO
    TITLE "5:cjc004_2548"
    INDEX 01 00:57:45
  TRACK 42 AUDIO
    TITLE "0:"
    INDEX 01 01:03:27
  TRACK 43 AUDIO
    TITLE "3:cjc004_2549"
    INDEX 01 01:04:05
  TRACK 44 AUDIO
    TITLE "0:"
    INDEX 01 01:05:11
  TRACK 45 AUDIO
    TITLE "4:cjc004_2550"
    INDEX 01 01:05:38
  TRACK 46 AUDIO
    TITLE "0:"
    INDEX 01 01:06:71
  TRACK 47 AUDIO
    TITLE "5:cjc004_2551"
    INDEX 01 01:07:21
  TRACK 48 AUDIO
    TITLE "0:"
    INDEX 01 01:12:66
  TRACK 49 AUDIO
    TITLE "3:cjc004_2552"
    INDEX 01 01:13:49
  TRACK 50 AUDIO
    TITLE "0:"
    INDEX 01 01:14:57
  TRACK 51 AUDIO
    TITLE "4:cjc004_2553"
    INDEX 01 01:15:13
  TRACK 52 AUDIO
    TITLE "0:"
    INDEX 01 01:16:38
  TRACK 53 AUDIO
    TITLE "5:cjc004_2554"
    INDEX 01 01:16:71
  TRACK 54 AUDIO
    TITLE "0:"
    INDEX 01 01:21:23
  TRACK 55 AUDIO
    TITLE "3:cjc004_2555"
    INDEX 01 01:21:70
  TRACK 56 AUDIO
    TITLE "0:"
    INDEX 01 01:23:11
  TRACK 57 AUDIO
    TITLE "4:cjc004_2556"
    INDEX 01 01:23:44
  TRACK 58 AUDIO
    TITLE "0:"
    INDEX 01 01:25:09
  TRACK 59 AUDIO
    TITLE "5:cjc004_2557"
    INDEX 01 01:25:33
  TRACK 60 AUDIO
    TITLE "0:"
    INDEX 01 01:29:72
